<svg id="visual" viewBox="0 0 900 600" width="900" height="600" xmlns="http://www.w3.org/2000/svg" xmlns:xlink="http://www.w3.org/1999/xlink" version="1.1"><rect x="0" y="0" width="900" height="600" fill="#fff"></rect><path d="M0 402L21.5 403.5C43 405 86 408 128.8 414.7C171.7 421.3 214.3 431.7 257.2 441C300 450.3 343 458.7 385.8 453C428.7 447.3 471.3 427.7 514.2 426C557 424.3 600 440.7 642.8 451.8C685.7 463 728.3 469 771.2 468.2C814 467.3 857 459.7 878.5 455.8L900 452L900 601L878.5 601C857 601 814 601 771.2 601C728.3 601 685.7 601 642.8 601C600 601 557 601 514.2 601C471.3 601 428.7 601 385.8 601C343 601 300 601 257.2 601C214.3 601 171.7 601 128.8 601C86 601 43 601 21.5 601L0 601Z" fill="#c13131"></path><path d="M0 460L21.5 456.8C43 453.7 86 447.3 128.8 444.8C171.7 442.3 214.3 443.7 257.2 450.7C300 457.7 343 470.3 385.8 473C428.7 475.7 471.3 468.3 514.2 462C557 455.7 600 450.3 642.8 453.7C685.7 457 728.3 469 771.2 475.2C814 481.3 857 481.7 878.5 481.8L900 482L900 601L878.5 601C857 601 814 601 771.2 601C728.3 601 685.7 601 642.8 601C600 601 557 601 514.2 601C471.3 601 428.7 601 385.8 601C343 601 300 601 257.2 601C214.3 601 171.7 601 128.8 601C86 601 43 601 21.5 601L0 601Z" fill="#982e30"></path><path d="M0 502L21.5 505.5C43 509 86 516 128.8 512.5C171.7 509 214.3 495 257.2 493.5C300 492 343 503 385.8 503.7C428.7 504.3 471.3 494.7 514.2 494.2C557 493.7 600 502.3 642.8 506.2C685.7 510 728.3 509 771.2 502.5C814 496 857 484 878.5 478L900 472L900 601L878.5 601C857 601 814 601 771.2 601C728.3 601 685.7 601 642.8 601C600 601 557 601 514.2 601C471.3 601 428.7 601 385.8 601C343 601 300 601 257.2 601C214.3 601 171.7 601 128.8 601C86 601 43 601 21.5 601L0 601Z" fill="#702a2c"></path><path d="M0 509L21.5 516C43 523 86 537 128.8 538.3C171.7 539.7 214.3 528.3 257.2 525.3C300 522.3 343 527.7 385.8 530.7C428.7 533.7 471.3 534.3 514.2 531.8C557 529.3 600 523.7 642.8 520C685.7 516.3 728.3 514.7 771.2 515.3C814 516 857 519 878.5 520.5L900 522L900 601L878.5 601C857 601 814 601 771.2 601C728.3 601 685.7 601 642.8 601C600 601 557 601 514.2 601C471.3 601 428.7 601 385.8 601C343 601 300 601 257.2 601C214.3 601 171.7 601 128.8 601C86 601 43 601 21.5 601L0 601Z" fill="#482525"></path><path d="M0 569L21.5 567.2C43 565.3 86 561.7 128.8 557.3C171.7 553 214.3 548 257.2 549C300 550 343 557 385.8 557.5C428.7 558 471.3 552 514.2 552.5C557 553 600 560 642.8 563.3C685.7 566.7 728.3 566.3 771.2 564C814 561.7 857 557.3 878.5 555.2L900 553L900 601L878.5 601C857 601 814 601 771.2 601C728.3 601 685.7 601 642.8 601C600 601 557 601 514.2 601C471.3 601 428.7 601 385.8 601C343 601 300 601 257.2 601C214.3 601 171.7 601 128.8 601C86 601 43 601 21.5 601L0 601Z" fill="#211d1d"></path></svg>